<svg xmlns="http://www.w3.org/2000/svg" xmlns:xlink="http://www.w3.org/1999/xlink" version="1.1" width="1000" height="1000" viewBox="0 0 1000 1000" xml:space="preserve">
<desc>Created with Fabric.js 3.6.3</desc>
<defs>
</defs>
<g transform="matrix(1 0 0 1 499.5679100000001 499.56792999999993)" id="uidb6ksq6sil">
<path style="stroke: rgb(15,46,82); stroke-width: 0; stroke-dasharray:; stroke-linecap: butt; stroke-dashoffset: 0; stroke-linejoin: miter; stroke-miterlimit: 4; fill: rgb(11,19,99); fill-rule: nonzero; opacity: 1;" transform=" translate(-999.135575, -999.135815)" d="M 1372.5894 499.56836 c 100.97949 0 126.11384 15.61072 126.11384 116.60649 v 745.17905 c 0 100.99588 -18.22014 137.3498 -119.19941 137.3498 h -758.1436 c -100.99588 0 -121.79232 -34.62542 -121.79232 -135.60471 v -740.01013 c 0 -100.99588 21.66085 -123.52093 122.65662 -123.52093 z" stroke-linecap="round"/>
</g>
<g transform="matrix(1 0 0 1 500.0000000000001 500.43215)" id="uidbpxmcz6fp">
<path style="stroke: rgb(15,46,82); stroke-width: 0; stroke-dasharray:; stroke-linecap: butt; stroke-dashoffset: 0; stroke-linejoin: miter; stroke-miterlimit: 4; fill: rgb(178,182,218); fill-rule: nonzero; opacity: 1;" transform=" translate(-972.43289, -972.4331299999999)" d="M 1336.6502 500.43215 c 95.51005 0 107.35128 1.42255 107.35128 96.93272 l 0.8643 731.79464 c 0 95.49449 -8.43084 115.2746 -103.94101 115.2746 h -736.8429 c -95.4944 0 -104.08187 -26.60052 -104.08187 -122.11069 l 0.8643 -722.27131 c 0 -95.51013 18.74338 -99.61949 114.23803 -99.61949 z" stroke-linecap="round"/>
</g>
<g transform="matrix(1 0 0 1 259.29133 203.82465)" id="uid8lkgeinbm">
<path style="stroke: rgb(2,37,107); stroke-width: 0; stroke-dasharray:none; stroke-linecap: butt; stroke-dashoffset: 0; stroke-linejoin: miter; stroke-miterlimit: 4; fill: rgb(10,153,115); fill-rule: nonzero; opacity: 1;" transform=" translate(-483.1462, -372.21282999999994)" d="M 647.4003 203.82465 c 45.24856 0 57.00786 20.05771 57.00786 54.27488 l 2.59291 221.31216 c 0 34.21722 -16.08076 59.46071 -61.32938 59.46071 l -321.59376 1.72861 c -45.25593 0 -64.7866 -26.97215 -64.7866 -61.18365 l 1.72861 -221.31777 c 0 -34.21722 14.34481 -53.41058 59.60077 -53.41058 z" stroke-linecap="round"/>
</g>
<g transform="matrix(1 0 0 1 673.556047960463 287.70464)" id="uidjt7jetvh">
<path style="stroke: rgb(2,37,107); stroke-width: 0; stroke-dasharray:none; stroke-linecap: butt; stroke-dashoffset: 0; stroke-linejoin: miter; stroke-miterlimit: 4; fill: rgb(139,129,6); fill-rule: nonzero; opacity: 1;" transform=" translate(-857.8124175395146, -539.5780699999999)" d="M 1042.06826 722.9549 c 0.11931 50.82693 -20.01817 68.40892 -57.37301 68.4966 l -243.32859 -0.84177 c -37.35492 0.08769 -64.95576 -17.91085 -65.07507 -68.73795 l -2.73518 -361.23666 c -0.11933 -50.83529 29.27469 -72.84281 66.62342 -72.93048 l 241.61755 1.37456 c 37.35492 -0.08769 58.34619 15.97642 58.46553 66.81177 z" stroke-linecap="round"/>
</g>
<g transform="matrix(1 0 0 1 217.5102398360031 560.4198952005618)" id="uid7l0p94cpl">
<path style="stroke: rgb(2,37,107); stroke-width: 0; stroke-dasharray:none; stroke-linecap: butt; stroke-dashoffset: 0; stroke-linejoin: miter; stroke-miterlimit: 4; fill: rgb(207,52,70); fill-rule: nonzero; opacity: 1;" transform=" translate(-857.8124175395146, -539.578015)" d="M 1042.06826 672.09608 c 0.11931 36.73025 -20.01817 49.436 -57.37301 49.49938 l -243.32859 -0.60836 c -37.35492 0.06341 -64.95576 -12.9434 -65.07507 -49.67376 l -2.73518 -261.0492 c -0.11933 -36.73637 29.27469 -52.64019 66.62342 -52.70357 l 241.61755 0.99327 c 37.35492 -0.06341 58.34619 11.54548 58.46553 48.28185 z" stroke-linecap="round"/>
</g>
<g transform="matrix(1 0 0 1 670.4213380503769 680.3608311434225)" id="uidpn7cbwo77">
<path style="stroke: rgb(2,37,107); stroke-width: 0; stroke-dasharray:none; stroke-linecap: butt; stroke-dashoffset: 0; stroke-linejoin: miter; stroke-miterlimit: 4; fill: rgb(114,44,148); fill-rule: nonzero; opacity: 1;" transform=" translate(-483.14617499999997, -372.21281)" d="M 676.14308 240.12766 c 53.16656 0 66.98363 15.73342 66.98363 42.57371 l 3.0467 173.59914 c 0 26.84027 -18.89469 46.64151 -72.06144 46.64151 l -377.86944 1.35594 c -53.17529 0 -76.12359 -21.15722 -76.12359 -47.99302 l 2.03112 -173.60356 c 0 -26.84027 16.855 -41.89572 70.03033 -41.89572 z" stroke-linecap="round"/>
</g>
</svg>